<svg width="54" height="55" viewBox="0 0 54 55" fill="none" xmlns="http://www.w3.org/2000/svg">
<path d="M41.1254 36.1811C41.1254 36.1811 51.9795 27.4354 52.3347 27.1243C52.6899 26.8132 52.8083 26.8823 52.8478 26.5366" stroke="black"/>
<path d="M37.3363 38.3934C37.4152 38.4279 36.7443 39.0502 36.7443 39.0502C36.7443 39.0502 44.2829 47.7612 44.796 48.1069C45.3091 48.4526 46.5722 48.1069 46.6511 47.2427C46.73 46.3785 46.7695 35.4205 46.6511 34.4526C46.5327 33.4847 46.0591 33.1045 45.2302 33.3119C44.4013 33.5193 43.9277 33.9341 43.9277 33.9341" stroke="black"/>
<path d="M33.5868 44.4427C33.7001 44.2466 33.7447 44.2353 33.942 44.3044C34.1394 44.3736 44.9935 47.9686 44.954 48.2106" stroke="black"/>
<path d="M23.0879 7.55885L25.6929 2.61565C25.9405 2.05682 26.1126 1.85497 26.4033 1.44035C27.1254 0.746627 27.8637 1.09466 28.1795 1.44035C28.4952 1.78603 30.8069 5.93769 32.4027 8.76873" stroke="black"/>
<path d="M40.7701 19.2083L52.4531 26.3638C52.8922 26.6095 52.9857 26.5792 53.0057 26.3638C53.0057 26.3638 53.0057 22.2848 53.0057 21.5589C53.0057 20.833 52.8873 20.591 52.4531 20.0725C52.0189 19.554 45.4275 12.5367 45.4275 12.5367" stroke="black"/>
<path d="M16.2991 16.4774L14.3257 14.6453C14.3257 14.6453 14.1283 14.4379 13.852 13.8502C13.5758 13.2626 13.852 11.7762 13.852 11.7762L14.1283 9.149C14.1283 9.149 14.6809 6.62555 14.6809 5.58852C14.6809 4.55148 14.6809 5.3811 14.6809 5.00086C14.6809 4.62062 14.8388 4.41322 14.8388 4.41322C14.8388 4.41322 15.1515 4.16568 15.5887 3.9984C16.0259 3.83111 16.3558 3.97997 16.4176 3.9984C16.4176 3.9984 18.7856 5.25297 19.3778 5.58852C19.97 5.92406 24.7022 8.4442 25.0219 8.66505C25.3416 8.88591 27.9426 10.2897 27.9426 10.2897" stroke="black"/>
<path d="M14.6808 5.41571C14.6019 5.34658 23.6009 12.0527 23.6009 12.0527" stroke="black"/>
<path d="M1.10339 10.67L7.93161 17.0997L12.3127 21.4898" stroke="black"/>
<path d="M8.91833 44.0624L16.8517 42.1266L19.8119 41.3661" stroke="black"/>
<path d="M12.51 19.2083C12.8653 18.5515 16.2991 16.512 16.2991 16.512C16.0633 16.6858 21.0875 13.8373 21.4301 13.6083C21.7728 13.3793 23.1273 12.3984 23.7588 12.0182C24.3903 11.6379 25.0219 11.3614 25.1008 11.3959C25.1797 11.4305 34.9042 17.6873 35.0621 17.791C35.22 17.8947 35.5851 18.029 35.812 18.0927C36.039 18.1564 37.0476 17.6814 36.9961 17.6779C36.9235 17.7459 37.8182 16.972 38.2046 16.9614C38.5911 16.9507 40.1213 19.2058 40.1386 19.2083C40.1386 19.2083 40.4149 19.4157 40.7702 19.2083C41.1254 19.0008 40.6912 35.3514 40.7702 35.628C40.8491 35.9045 41.0859 36.0428 41.1254 36.1811C41.1649 36.3193 37.3363 38.428 37.3363 38.428C37.3363 38.428 38.6388 36.5267 38.7967 36.1811C38.9546 35.8354 38.7967 35.628 38.7967 35.628C38.7967 35.628 38.6388 35.3169 38.2046 35.3514C37.7705 35.386 29.2451 38.428 29.2451 38.428L23.7588 40.2601C23.7588 40.2601 20.5618 41.1934 20.3645 41.2971C20.1671 41.4008 19.6935 41.3662 19.654 41.2971C19.6145 41.228 14.7203 38.2206 14.6019 38.1169C14.4835 38.0132 13.4968 37.2181 13.2599 36.9761C13.0231 36.7342 12.5495 35.9391 12.51 35.628C12.4706 35.3169 12.51 35.6971 12.51 35.6971C12.4726 35.8217 12.1548 19.865 12.51 19.2083Z" stroke="black"/>
<path d="M20.8776 35.0748C20.8776 35.0748 20.8776 35.213 21.1933 35.1785C21.5091 35.1439 22.1011 34.8328 22.1011 34.8328L25.1797 33.1735L28.6136 31.2723L32.9947 28.7834L35.2444 27.4699L36.3891 26.7439C36.5666 26.6252 36.5895 26.5561 36.6259 26.4328V25.7415V25.1884C36.6259 25.1884 36.6259 25.0155 36.6259 24.9118C36.6259 24.8081 36.3891 24.739 36.3891 24.739L36.3101 24.7044M36.2706 24.7044C36.2706 24.7044 36.2706 24.7736 36.3101 24.6699" stroke="black"/>
<path d="M32.2448 26.986C32.1658 26.986 21.1144 17.3415 21.1144 17.2724C21.1144 17.2033 21.1538 17.1341 21.2723 17.065C21.3907 16.9958 21.5485 17.065 21.5485 17.065L21.9827 17.2724C21.9827 17.2724 36.1522 24.3588 36.2707 24.7045C36.3891 25.0502 32.3237 26.986 32.2448 26.986Z" stroke="black"/>
<path d="M21.1144 17.2724C21.1144 17.2724 20.9565 17.1687 20.8381 17.2724C20.7197 17.3761 20.7197 17.4798 20.7197 17.4798V19.0353V20.6946V34.6946C20.7197 34.6946 20.6803 35.0403 20.8381 35.0748C20.996 35.1094 23.0089 33.4501 23.0089 33.4501L27.6269 30.0625L29.2451 28.9563L30.8239 27.8847L32.2448 26.9859" stroke="black"/>
<path d="M25.0613 11.3614C25.0613 11.3614 28.2978 10.1169 28.6925 9.97866C29.0872 9.84039 37.4152 7.21323 37.4152 7.21323L43.6909 5.24286L45.1118 4.89719H45.9801C46.2798 5.07094 46.3723 5.18521 46.4143 5.4157C46.3843 5.55805 46.6208 5.87355 46.6905 5.86509C46.7603 5.85662 46.7212 8.72326 46.6905 8.76878V11.3614C46.6975 11.6586 46.6587 11.795 46.4143 11.9145L43.4146 13.712L38.0862 16.8922" stroke="black"/>
<path d="M38.0073 16.9613L38.0863 16.8922L38.2047 16.8231L37.9284 16.9959L37.8889 17.065" stroke="black"/>
<path d="M14.0493 14.3687C14.0493 14.3687 4.61612 9.14891 3.51098 8.83781C2.40585 8.52671 1.77434 8.423 1.3007 9.4946C0.827051 10.5662 1.14281 20.0724 1.3007 20.9366C1.45858 21.8007 1.49804 21.5933 1.97168 22.2501C2.44531 22.9069 8.79989 29.7168 8.79989 29.7168C10.0813 30.8252 10.968 32.7117 10.8128 32.9662C10.6577 33.2207 10.6494 33.6885 10.8128 34.1069C10.9763 34.5252 12.9047 36.5612 12.9047 36.5612" stroke="black"/>
<path d="M3.62941 24.1515C3.62941 24.1515 3.78729 24.1861 2.80055 23.8058C1.81381 23.4256 1.34018 24.0132 1.1823 24.8429C1.02442 25.6725 0.866547 39.0848 1.1823 40.3984C1.49806 41.712 2.36639 41.6083 3.35312 41.0898C4.33986 40.5712 5.68182 39.1194 5.68182 39.1194C5.68182 39.1194 10.5366 34.4527 10.8128 34.3145" stroke="black"/>
<path d="M13.8519 37.5291L9.03666 43.302C8.91474 43.5756 8.89269 43.7262 8.87878 43.9933C8.87878 43.9933 8.87878 48.1069 8.87878 49.4205C8.87878 50.734 9.74711 50.8377 11.0101 50.3884C12.2732 49.939 23.1667 44.4081 23.1667 44.4081L32.4026 39.4304L38.7572 35.7662" stroke="black"/>
<path d="M21.6275 45.2033C21.5599 45.4058 21.5462 45.5193 21.6275 45.7218C21.6275 45.7218 25.5744 52.7736 26.1664 53.4996C26.7585 54.2255 27.5873 54.1564 28.3767 53.3267C29.1661 52.4971 34.0209 43.6477 34.0209 43.6477L36.7048 39.0848" stroke="black"/>
</svg>
